<svg width="24" height="25" viewBox="0 0 24 25" fill="none" xmlns="http://www.w3.org/2000/svg">
<mask id="mask0_1_367" style="mask-type:alpha" maskUnits="userSpaceOnUse" x="0" y="0" width="24" height="25">
<rect y="0.266602" width="24" height="24" fill="#D9D9D9"/>
</mask>
<g mask="url(#mask0_1_367)">
<path d="M12 12.2666C10.9 12.2666 9.95833 11.8749 9.175 11.0916C8.39167 10.3083 8 9.3666 8 8.2666C8 7.1666 8.39167 6.22494 9.175 5.4416C9.95833 4.65827 10.9 4.2666 12 4.2666C13.1 4.2666 14.0417 4.65827 14.825 5.4416C15.6083 6.22494 16 7.1666 16 8.2666C16 9.3666 15.6083 10.3083 14.825 11.0916C14.0417 11.8749 13.1 12.2666 12 12.2666ZM4 20.2666V17.4666C4 16.8999 4.14583 16.3791 4.4375 15.9041C4.72917 15.4291 5.11667 15.0666 5.6 14.8166C6.63333 14.2999 7.68333 13.9124 8.75 13.6541C9.81667 13.3958 10.9 13.2666 12 13.2666C13.1 13.2666 14.1833 13.3958 15.25 13.6541C16.3167 13.9124 17.3667 14.2999 18.4 14.8166C18.8833 15.0666 19.2708 15.4291 19.5625 15.9041C19.8542 16.3791 20 16.8999 20 17.4666V20.2666H4Z" fill="#EFE5C7"/>
</g>
</svg>
